# xmcd
#
# Track frame offsets:
#	150
#	6835
#	14627
#	30282
#	47437
#	56795
#	64387
#	78980
#	90602
#	97497
#	104640
#	117842
#	131210
#	145872
#	156677
#	177997
#	194042
#
# Disc length: 2757 seconds
#
# Revision: 4
# Processed by: cddbd v1.5.2PL0 Copyright (c) Steve Scherf et al.
# Submitted via: EZCDAudioConverter 3.1.5.1
#
DISCID=fd0ac311
DTITLE=Άλκηστις Πρωτοψάλτη - Ζωντανή Ηχογράφηση Zoom '91/'92 CD1
DYEAR=1992
DGENRE=Ethnic
TTITLE0=Εισαγωγή
TTITLE1=Πριν Το Χάραμα Μοναχός
TTITLE2=Θεός Αν Είναι
TTITLE3=	Μαύρο Χιόνι
TTITLE4=Καθρεφτίζω Το Νου
TTITLE5=Δυο-Δυο
TTITLE6=	Παραδέχτηκα
TTITLE7=	Το Τραγούδι Των Γύφτων
TTITLE8=Του Άη Γιώργη (Ederlezi)
TTITLE9=	Τι Πάθος
TTITLE10=Μαχαίρι
TTITLE11=	Ζελατίνα
TTITLE12=	Ιωάννης
TTITLE13=Έρημος Βαρύς Και Μόνος
TTITLE14=	Ζημιά
TTITLE15=Μόνο Μια Φορά
TTITLE16=Λίζα
EXTD=
EXTT0=
EXTT1=
EXTT2=
EXTT3=
EXTT4=
EXTT5=
EXTT6=
EXTT7=
EXTT8=
EXTT9=
EXTT10=
EXTT11=
EXTT12=
EXTT13=
EXTT14=
EXTT15=
EXTT16=
PLAYORDER=
